<?xml version="1.0" encoding="utf-8"?>
<!-- Generator: Adobe Illustrator 17.1.0, SVG Export Plug-In . SVG Version: 6.00 Build 0)  -->
<!DOCTYPE svg PUBLIC "-//W3C//DTD SVG 1.1//EN" "http://www.w3.org/Graphics/SVG/1.1/DTD/svg11.dtd">
<svg version="1.1" id="Layer_1" xmlns="http://www.w3.org/2000/svg" xmlns:xlink="http://www.w3.org/1999/xlink" x="0px" y="0px"
	 viewBox="531.5 552.7 354.4 311.9" enable-background="new 531.5 552.7 354.4 311.9" xml:space="preserve">
<path fill="#81C8C1" d="M693.8,806.1c-69.5-22.6-123.7-66.9-151.7-117.6c-0.2,2.8-0.4,5.7-0.4,8.6c0,47.1,30,89.9,80.1,114.6
	c2.2,1.2,3.5,3.9,2.7,6.3c-3.7,10.8-15.1,28.9-49.5,28.9c-0.8,0-1.4,0-2.2,0c13.2,5.1,25.5,7.8,36.9,7.8c20.8,0,38.5-8.3,54.4-25.7
	c1.2-1.2,3-1.8,4.7-1.6c13,2.7,26.5,3.9,39.9,3.9c22.6,0,44-3.7,63.8-10.2C746.8,819.6,720.3,814.9,693.8,806.1z"/>
<g>
	<path fill="#3E5067" d="M708.7,552.7c-97.7,0-177.2,64.6-177.2,144.3c0,49.7,30.4,94.8,81.5,121.5c-4.3,8.1-14.3,18.1-38.1,18.1
		c-9.4,0-20.2-1.6-32.2-4.7c-2.5-0.6-4.9,0.6-5.9,3c-1,2.2,0,5.1,2,6.3c25.9,15.3,49.7,23.2,70.7,23.2c22.8,0,42.4-8.8,59.9-26.9
		c12.8,2.4,25.9,3.5,39.1,3.5c97.6,0,177.2-64.6,177.2-144.3C885.8,617.3,806.3,552.7,708.7,552.7z M772.5,820.8
		c-19.6,6.5-41.2,10.2-63.8,10.2c-13.4,0-26.9-1.2-39.9-3.9c-1.8-0.4-3.5,0.2-4.7,1.6c-15.9,17.3-33.8,25.7-54.4,25.7
		c-11.4,0-23.6-2.7-36.9-7.8c0.8,0,1.6,0,2.2,0c34.4,0,45.7-18.1,49.5-28.9c0.8-2.5-0.2-5.1-2.7-6.3
		c-50.1-24.5-80.1-67.3-80.1-114.4c0-2.8,0.2-5.7,0.4-8.6c5.5-69.9,78.1-125.6,166.6-125.6c92.1,0,167,60.1,167,134.1
		C875.6,752.7,833,800.8,772.5,820.8z"/>
	<path fill="#3E5067" d="M614.5,679.9c-6.3,0-11.6,2.2-15.9,6.7c-4.3,4.5-6.7,9.8-6.7,16.1c0,6.3,2,11.4,6.3,15.7
		c4.3,4.1,9.4,6.3,15.7,6.3c2,0,4.3-0.4,6.5-1.2c2.2-0.8,4.3-1.8,5.7-3.2l-2.2-4.1c-2.8,2.8-6.1,4.1-10,4.1c-4.9,0-8.8-1.6-12.2-5.1
		c-3.2-3.2-4.9-7.5-4.9-12.7c0-5.1,1.8-9.4,5.3-13c3.5-3.7,7.8-5.5,12.8-5.5s9.2,1.6,12.2,5.1s4.5,7.8,4.5,13c0,2.5-0.4,4.5-1.2,6.1
		c-0.8,1.7-1.6,2.5-2.7,2.5c-1,0-1.6-1-1.6-2.8v-17.9h-6.9v2.2l-0.8-0.8c-0.4-0.4-1.2-1-2.2-1.4c-1-0.4-2.2-0.8-3.2-0.8
		c-3.5,0-6.1,1.2-8.3,3.9c-2.2,2.7-3.2,5.7-3.2,9.4c0,3.7,1.2,6.7,3.5,9.2c2.2,2.5,5.1,3.7,8.2,3.7c3,0,5.7-1.4,7.7-4.1
		c0.4,1.2,1.2,2.5,2.5,3.2c1.2,0.8,2.4,1.2,3.9,1.2c2.8,0,5.1-1.2,6.7-3.7c1.6-2.5,2.7-5.7,2.7-10c0-6.3-2-11.6-6.3-15.9
		C625.7,681.7,620.8,679.9,614.5,679.9z M617.7,707.2c-1,1.2-2.2,1.8-3.9,1.8s-2.8-0.6-3.9-2c-1-1.5-1.4-2.8-1.4-4.7
		c0-1.8,0.4-3.2,1.4-4.5c1-1.2,2.2-1.8,3.9-1.8s2.8,0.6,3.9,1.8s1.4,2.8,1.4,4.7C619.2,704.4,618.7,706,617.7,707.2z"/>
	<path fill="#3E5067" d="M665,689.9c-2.2-1.8-5.1-2.8-8.8-2.8c-5.1,0-9.6,1.4-13.6,4.3l3.7,5.5c1-0.8,2.4-1.6,4.1-2.2
		c1.6-0.6,3.2-0.8,4.7-0.8c3.5,0,5.1,1.6,5.1,4.9v0.2h-6.3c-3.9,0-6.9,0.8-9.2,2.2c-2.2,1.6-3.2,3.9-3.2,6.9s1,5.5,3.2,7.3
		c2.2,1.8,4.9,2.8,7.9,2.8s5.9-1.4,8-4.1v3.7h7.9v-19.2C668.5,694.8,667.3,691.7,665,689.9z M660.5,706.2h-0.2
		c0,1.6-0.6,2.8-1.6,3.7c-1.2,1-2.4,1.4-3.9,1.4c-1.4,0-2.6-0.2-3.5-0.8c-0.8-0.6-1.2-1.4-1.2-2.5c0-2,1.6-3,5.1-3h5.3V706.2z"/>
	<path fill="#3E5067" d="M695.8,703.8c0,2.2-0.6,4.1-1.8,5.3c-1.2,1.2-2.7,1.8-4.3,1.8c-3.5,0-5.1-2.2-5.1-6.9v-16.5H676v18.3
		c0,4.1,1,7.1,3.2,9.2c2.2,2,5.1,3,8.3,3s5.9-1.4,8.1-4.5v4.1h8.6v-30h-8.6L695.8,703.8L695.8,703.8z"/>
	<path fill="#3E5067" d="M725.4,710.9c-0.8,0-1.6-0.4-2-1c-0.6-0.6-0.8-1.6-0.8-2.7v-13.4h7.3v-6.1h-7.3v-9h-8.6v9h-3.4v6.1h3.5
		v13.9c0,3.2,1,5.9,3,7.8c2,1.8,4.5,2.8,7.3,2.8s5.7-1.2,8.3-3.7l-3-5.9C728.2,710.1,727,710.9,725.4,710.9z"/>
	<path fill="#3E5067" d="M753.9,687c-3,0-5.9,1.2-8.6,3.9V676H737v41.8h8.3v-16.3c0-2.4,0.6-4.1,1.8-5.3s2.6-1.8,4.5-1.8
		c3.5,0,5.1,2.2,5.1,6.9v16.5h8.3v-18.3c0-3.7-1-6.7-3.2-9C759.8,688.3,757.2,687,753.9,687z"/>
	<path fill="#3E5067" d="M798.4,691.5c-3-2.8-6.7-4.5-11.4-4.5c-4.5,0-8.3,1.4-11.4,4.5c-3,3-4.5,6.7-4.5,11c0,4.3,1.4,8.2,4.5,11
		c3.1,3,6.7,4.5,11.4,4.5c4.7,0,8.3-1.4,11.4-4.5c3-3,4.5-6.7,4.5-11C802.8,698.3,801.4,694.4,798.4,691.5z M792.4,708.6
		c-1.4,1.6-3.2,2.2-5.3,2.2s-4.1-0.8-5.3-2.2c-1.4-1.6-2-3.5-2-6.1c0-2.6,0.6-4.5,2-6.1c1.4-1.6,3.2-2.5,5.3-2.5s4.1,0.8,5.3,2.5
		c1.4,1.6,2,3.7,2,6.1C794.5,705,793.9,707.2,792.4,708.6z"/>
	<path fill="#3E5067" d="M817.5,691.5v-4.1h-8.3v30.4h8.3v-13c0-2.8,0.6-5.3,1.8-7.1c1.2-1.8,3-2.7,5.7-2.7h1.6v-8
		c-1.8,0-3.5,0.6-5.1,1.4S818.5,690.3,817.5,691.5z"/>
</g>
</svg>
