<?xml version="1.0" encoding="utf-8"?>
<!-- Generator: Adobe Illustrator 17.1.0, SVG Export Plug-In . SVG Version: 6.00 Build 0)  -->
<!DOCTYPE svg PUBLIC "-//W3C//DTD SVG 1.1//EN" "http://www.w3.org/Graphics/SVG/1.1/DTD/svg11.dtd">
<svg version="1.1" id="Layer_1" xmlns="http://www.w3.org/2000/svg" xmlns:xlink="http://www.w3.org/1999/xlink" x="0px" y="0px"
	 viewBox="-0.1 2708.1 1417.4 253" enable-background="new -0.1 2708.1 1417.4 253" xml:space="preserve">
<g>
	<path fill="#3E5067" d="M458.5,2871.1c0-10.6-2.6-19.2-7.5-25.4c-5-6.2-12.8-9.4-23.3-9.4c-7.8,0-14.2,1.8-19.2,5.4
		c-5,3.5-8.5,8.5-10.6,14.8h-0.4c-1.3-6.7-4.1-11.8-8.5-15c-4.4-3.4-10.4-5-17.7-5c-7.5,0-13.9,1.7-19.2,5.3
		c-5.3,3.4-9.2,8.4-11.6,14.9h-0.3c0.7-3.1,1.1-6.1,1.1-9.1c0.1-3,0.1-6,0.1-9.1h-34.9v17.3h11.6v54.4h-9.7v17.3h43.7v-17.3H342
		v-29.7c0-3.4,0.4-6.5,1.1-9.4c0.9-2.8,2-5.4,3.5-7.5c1.6-2.1,3.5-3.8,5.8-5c2.3-1.1,5.1-1.8,8.2-1.8c4.5,0,8.2,1.3,11.2,3.7
		c2.8,2.6,4.4,6.8,4.4,12.9v36.6h-8.7v17.3h42.7V2910h-10.2v-29.7c0-7.1,1.7-12.9,5.1-17.2c3.4-4.3,7.9-6.5,13.8-6.5
		c4.5,0,8.2,1.3,11.2,3.7c2.8,2.6,4.4,6.8,4.4,12.9v36.6H426v17.3h42.7v-17.3h-10.2V2871.1z"/>
	<path fill="#3E5067" d="M558.8,2867.9c-1.6-6.4-4.1-11.9-7.7-16.5c-3.5-4.7-7.9-8.4-13.5-11.1c-5.4-2.7-11.9-4.1-19.6-4.1
		c-7.1,0-13.3,1.1-18.9,3.4c-5.5,2.3-10.2,5.5-14.1,9.7c-3.8,4.1-6.8,9.1-8.8,14.9s-3.1,12.2-3.1,19c0,6.1,1,12.1,2.8,17.6
		c1.8,5.7,4.8,10.5,8.8,14.8s9.1,7.5,15.2,10.1c6.1,2.6,13.5,3.7,22.1,3.7c6.1,0,11.8-0.4,16.9-1.3c5.1-0.9,10.5-2.3,16-4.4
		l1.1-18.9c-5,2.1-9.7,3.7-13.9,4.7s-9.2,1.4-14.9,1.4c-8.4,0-15.2-2-20.2-6.1c-5.1-4-7.8-9.7-8.1-16.8h62
		C561.2,2881.1,560.3,2874.3,558.8,2867.9z M499,2871.9c0.6-6.1,2.4-10.9,5.4-14.2c3.1-3.4,7.4-5,12.8-5c5.5,0,9.9,1.7,13.2,5
		c3.3,3.4,4.8,8.1,4.8,14.2H499z"/>
	<path fill="#3E5067" d="M666.1,2871.1L666.1,2871.1c0-10.6-2.6-19.2-7.5-25.4c-5-6.2-12.8-9.4-23.3-9.4c-7.8,0-14.3,2-19.6,5.8
		c-5.3,3.8-8.9,8.8-11.2,14.6h-0.3c0.7-3.3,1.1-6.4,1.1-9.4c0.1-3,0.1-6,0.1-9.1h-34.9v17.5h11.6v54.4h-8.7v17.3h42.6v-17.3h-10.2
		v-29.7c0-3.4,0.4-6.5,1.1-9.4c0.9-2.8,2-5.4,3.7-7.5c1.7-2.1,3.8-3.8,6.5-5c2.6-1.1,5.7-1.8,9.4-1.8c4.5,0,8.2,1.3,11.2,3.7
		c2.8,2.6,4.4,6.8,4.4,12.9v36.6h-9.7v17.3h43.7V2910h-10.2V2871.1z"/>
	<path fill="#3E5067" d="M728.7,2911.1c-2.6,0-4.5-0.3-6.2-0.7c-1.7-0.4-3-1.3-4-2.4s-1.7-2.8-2.3-4.8c-0.4-2-0.7-4.5-0.7-7.8v-39.7
		h23.8v-17.2h-23.8v-19.9l-23.8,1.4v18.5h-12.1v17.3h12.1v50c0,7.8,2.3,13.8,6.8,17.7c4.5,4,11.2,6.1,20.2,6.1c3,0,6.1-0.3,9.2-1
		c3.3-0.6,7.1-1.7,11.5-3.3l0.9-16.9c-2.3,0.9-4.4,1.6-6.2,2C731.9,2910.8,730.2,2911.1,728.7,2911.1z"/>
	<path fill="#3E5067" d="M772.8,2823.5c5,0,8.9-1.4,11.8-4.1c2.8-2.7,4.3-6.2,4.3-10.8s-1.4-7.9-4.3-10.8c-2.8-2.7-6.8-4.1-11.8-4.1
		s-8.9,1.4-11.8,4.1s-4.3,6.2-4.3,10.8s1.4,7.9,4.3,10.8C763.9,2822.2,767.9,2823.5,772.8,2823.5z"/>
	<polygon fill="#3E5067" points="785.6,2838.4 750.3,2838.4 750.3,2855.7 761.8,2855.7 761.8,2910.1 752.1,2910.1 752.1,2927.4 
		795.8,2927.4 795.8,2910.1 785.6,2910.1 	"/>
	<path fill="#3E5067" d="M849.8,2836.3c-7.2,0-13.8,1.3-19.6,3.8c-5.8,2.6-10.6,6-14.8,10.4c-4,4.4-7.1,9.4-9.2,15.2
		c-2.1,5.7-3.3,11.8-3.3,18.2c0,7.7,1.1,14.2,3.3,19.9c2.3,5.7,5.4,10.4,9.5,14.2c4.1,3.8,8.9,6.7,14.8,8.7c5.7,2,12.2,2.8,19.3,2.8
		s13.6-1.1,19.3-3.4c5.7-2.3,10.6-5.4,14.8-9.5c4.1-4,7.2-8.8,9.5-14.3c2.3-5.5,3.3-11.6,3.3-18.5c0-15.6-4-27.4-12.1-35.5
		C876.5,2840.4,865,2836.3,849.8,2836.3z M865.8,2903.3c-3.3,4.5-8.7,6.8-16,6.8s-12.8-2.3-16-6.8c-3.3-4.5-5-10.8-5-18.9
		c0-4.1,0.4-7.8,1.1-11.4c0.9-3.4,2-6.5,3.7-9.1s3.8-4.5,6.5-6.1c2.7-1.4,5.8-2.3,9.5-2.3c7.4,0,12.8,2.4,16,7.1
		c3.3,4.7,5,11.9,5,21.6C870.8,2892.4,869.1,2898.7,865.8,2903.3z"/>
	<path fill="#3E5067" d="M999.4,2871.1c0-10.6-2.6-19.2-7.5-25.4c-5-6.2-12.8-9.4-23.3-9.4c-7.8,0-14.3,2-19.6,5.8
		c-5.3,3.8-8.9,8.8-11.2,14.6h-0.3c0.7-3.3,1.1-6.4,1.1-9.4c0.1-3,0.1-6,0.1-9.1h-34.9v17.5h11.6v54.4h-8.7v17.3h42.7v-17.3h-10.2
		v-29.7c0-3.4,0.4-6.5,1.1-9.4c0.9-2.8,2-5.4,3.7-7.5c1.7-2.1,3.8-3.8,6.5-5c2.6-1.1,5.7-1.8,9.4-1.8c4.5,0,8.2,1.3,11.2,3.7
		c2.8,2.6,4.4,6.8,4.4,12.9v36.6H966v17.3h43.7V2910h-10.4V2871.1z"/>
	<path fill="#3E5067" d="M1043.3,2823.5c5,0,8.9-1.4,11.8-4.1s4.3-6.2,4.3-10.8s-1.4-7.9-4.3-10.8c-2.8-2.7-6.8-4.1-11.8-4.1
		s-8.9,1.4-11.8,4.1s-4.3,6.2-4.3,10.8s1.4,7.9,4.3,10.8C1034.3,2822.2,1038.3,2823.5,1043.3,2823.5z"/>
	<polygon fill="#3E5067" points="1056,2838.4 1020.5,2838.4 1020.5,2855.7 1032.2,2855.7 1032.2,2910.1 1022.4,2910.1 
		1022.4,2927.4 1066.3,2927.4 1066.3,2910.1 1056,2910.1 	"/>
	<path fill="#3E5067" d="M1138.9,2910.1h-30.7v-0.4c1.6-0.6,3.3-1.8,5-3.7l46.1-50.4v-17.2H1082l-0.7,29.1h20.4l0.7-11.8h27.8v0.3
		c-1.4,0.7-3,1.8-4.4,3.5l-46.7,50.4v17.3h79.8l1.4-29.8h-21L1138.9,2910.1z"/>
	<path fill="#3E5067" d="M1255.1,2867.9c-1.6-6.4-4.1-11.9-7.7-16.5c-3.5-4.7-7.9-8.4-13.5-11.1s-11.9-4.1-19.6-4.1
		c-7.1,0-13.3,1.1-18.9,3.4c-5.5,2.3-10.2,5.5-14.1,9.7c-3.8,4.1-6.8,9.1-8.8,14.9c-2,5.8-3.1,12.2-3.1,19c0,6.1,1,12.1,2.8,17.6
		c1.8,5.7,4.8,10.5,8.8,14.8s9.1,7.5,15.2,10.1c6.1,2.6,13.5,3.7,22.1,3.7c6.1,0,11.8-0.4,16.9-1.3c5.1-0.9,10.5-2.3,16-4.4
		l1.1-18.9c-5,2.1-9.7,3.7-13.9,4.7s-9.2,1.4-14.9,1.4c-8.4,0-15.2-2-20.2-6.1c-5.1-4-7.8-9.7-8.1-16.8h62
		C1257.5,2881.1,1256.6,2874.3,1255.1,2867.9z M1195.3,2871.9c0.6-6.1,2.4-10.9,5.4-14.2c3.1-3.4,7.4-5,12.8-5c5.5,0,9.9,1.7,13.2,5
		c3.3,3.4,4.8,8.1,4.8,14.2H1195.3z"/>
	<path fill="#3E5067" d="M1327.3,2836.3c-13.5,0-22,7.5-25.6,22.4h-0.3c0.6-4.3,1-7.9,1.1-11.1c0.3-3.1,0.3-6.2,0.3-9.4h-34.6v17.5
		h11.6v54.4h-9.7v17.3h44.9v-17.3h-11.2v-28.8c0-7.4,2.1-13.2,6.2-17.3s9.5-6.2,15.9-6.2c2.3,0,4.8,0.3,7.7,0.9l1.6-21.3
		c-1.3-0.3-2.6-0.4-3.7-0.7C1330.2,2836.4,1328.7,2836.3,1327.3,2836.3z"/>
	<polygon fill="#3E5067" points="1358.8,2831.5 1366.8,2831.5 1366.8,2854.3 1373.2,2854.3 1373.2,2831.5 1381.1,2831.5 
		1381.1,2826.1 1358.8,2826.1 	"/>
	<polygon fill="#3E5067" points="1408.8,2826.1 1401.6,2841.5 1394.3,2826.1 1385.8,2826.1 1385.8,2854.3 1392.1,2854.3 
		1392.1,2836.4 1399.6,2851.9 1403.4,2851.9 1411.1,2836.4 1411.1,2854.3 1417.3,2854.3 1417.3,2826.1 	"/>
	<path fill="#3E5067" d="M208.7,2781.9c-9.8,0-17.6,7.9-17.6,17.6c0,4.1,1.4,8.1,4,11.1c2.6,3.1,6.2,5.4,10.4,6.2c0,0.6,0,1.3,0,2
		c0,0.7,0,1.4,0,2.3s0,1.7,0,2.7c-0.4,13.6-3.7,38.8-20.7,55.8c-14.1,14.1-34.8,20.2-61.6,18.2l-5-14.3c-0.3-0.9-1-1.6-1.8-2
		c-0.9-0.4-1.8-0.4-2.7-0.1l-11.2,3.8c-0.9,0.3-1.6,1-2,1.8c-0.4,0.9-0.4,1.8-0.1,2.7l10.8,31.2c0.6,1.4,1.8,2.4,3.4,2.4
		c0.4,0,0.7,0,1.1-0.1l11.2-3.8c0.9-0.3,1.6-1,2-1.8c0.4-0.9,0.4-1.8,0.1-2.7l-1.6-4.7l-1.7-5c2.4,0.1,4.7,0.1,7,0.1
		c24.3,0,43.4-7,57.2-20.7c19.2-19.2,22.6-46.6,22.9-61.2c0-0.6,0-1.3,0-1.8c0-1.8,0-3.5-0.1-4.8c5.4-1.1,9.8-4.7,12.1-9.5
		c1.1-2.3,1.8-5,1.8-7.7C226.4,2789.9,218.5,2781.9,208.7,2781.9z M116.5,2915.3l-6.8-19.7l-1.7-4.8l4.4-1.6l5.5,15.9l0.9,2.4
		l0.7,2.1l1.4,4.1L116.5,2915.3z M208.7,2810.2c-5.8,0-10.5-4.7-10.5-10.5s4.7-10.5,10.5-10.5s10.5,4.7,10.5,10.5
		C219.3,2805.3,214.5,2810.2,208.7,2810.2z"/>
	<path fill="#3E5067" d="M254.5,2785.9c-0.4,0-1,0-1.4,0.1c1.1-2.1,2-4.4,2.8-6.8c0.9-2.8,0-5.8-2.3-7.7c-1.3-1-2.8-1.6-4.4-1.6
		c-1.3,0-2.6,0.3-3.7,1c-4.8,2.8-9.9,5.1-15.2,6.8c-2.7-3.8-6-7.2-9.5-10.2c3.8-2.7,7-6.5,6-11.5c-1.6-7.8-11.1-9.1-17.5-9.2
		l-5.1-30.7c-0.4-2.7-2.4-5-5.1-5.7c-0.4-0.1-8.8-2.4-19.6-2.4c-4.8,0-9.4,0.4-13.6,1.3c-17,3.4-28.5,13.2-29,13.6
		c-1.8,1.6-2.7,4.1-2.4,6.5l5.1,31.1c-7.7,3.5-14.3,8.2-12.9,15.3c1,4.8,5.1,7.2,9.7,8.2c-3.5,6.5-5.4,13.6-7,20.3
		c-2.3,9.2-4.5,18-10.9,26.1c-8.9,7.2-32.9,13.3-53.1,13.3c-6,0-11.1-0.6-14.5-1.7c-0.7-0.3-1.4-0.3-2.1-0.3c-2,0-4,0.9-5.4,2.6
		c-1.8,2.1-2.3,5.3-0.9,7.8l0.3,0.7c0,0.1,0.1,0.3,0.1,0.3c-4.4-2.3-8.7-4.8-12.2-7.4c-1.3-1-2.7-1.4-4.3-1.4c-1.3,0-2.6,0.3-3.7,1
		c-2.4,1.6-3.8,4.4-3.3,7.2c0.1,0.6,0.1,1.1,0.4,1.8c-2.4-1.8-5-4.1-7.8-7c-1.4-1.4-3.3-2.1-5.1-2.1c-1,0-2.1,0.3-3.1,0.7
		c-2.7,1.3-4.4,4.3-4,7.2c7.9,61.3,60.6,107.6,122.5,107.6c68.1,0,123.6-55.5,123.6-123.6c0-7.5-0.7-15-2-22.4
		c6.2-5.3,11.8-11.5,16.3-18.3c1.7-2.7,1.6-6.1-0.4-8.5C258.6,2786.7,256.7,2785.9,254.5,2785.9z M135,2776.2
		c-0.1-0.1-0.3-0.1-0.3-0.3c-0.6-0.4-0.9-0.9-1-1.4c-1.8-3.5,10.9-8.7,13.9-9.7l-6.1-36.6c0,0,10.4-8.9,25.7-12.1
		c4.3-0.9,8.5-1.1,12.4-1.1c10.1,0,17.7,2.1,17.7,2.1l6.1,36.6c0.9,0,1.7,0,2.6,0c8.1,0,13.5,1.1,13.9,3.5c0.3,1.6-1.6,3.5-5.1,5.5
		c-2.1,1.1-4.7,2.4-7.8,3.7c-2,0.9-4.3,1.6-6.5,2.4c-0.6,0.1-1,0.3-1.6,0.6c-0.3,0.1-0.6,0.1-0.7,0.3c-0.9,0.3-1.7,0.6-2.7,0.9
		c-5.1,1.4-10.8,2.8-16.8,4.1c-7.5,1.6-14.6,2.6-20.9,3.1c-3,0.3-6,0.4-8.5,0.6c-3.3,0.1-6.2,0-8.7-0.4
		C138,2777.5,136.1,2777.1,135,2776.2z M236.5,2812.3c1.7,8.2,2.7,16.6,2.7,25.3c0,30.2-11.5,57.8-30.4,78.5
		c-0.3,0.3-0.4,0.4-0.7,0.7c-1.6,1.6-3,3.1-4.5,4.5c-21,20.2-49.4,32.7-80.9,32.7c-25.4,0-49-8.2-68.1-22
		c-12.5-9.1-23.3-20.6-31.4-33.8c-8.4-13.6-13.9-29.1-16-45.6c10.5,10.6,19,14.8,30.5,17.2c-3.3-4-8.4-10.9-10.4-15.9
		c-0.3-0.9-0.6-1.7-0.7-2.4c0.3,0.1,0.4,0.3,0.7,0.6c9.5,6.8,26.8,15.2,36.1,15.2c0.1,0,0.3,0,0.4,0c-9.8-7.7-12.1-12.8-14.9-18.2
		c2.4,0.7,5.4,1.3,8.7,1.6c2.4,0.3,5.1,0.4,7.8,0.4c19.9,0,46.8-5.8,58.1-15.3l0.1-0.1c13.3-16.5,11.2-34.6,19.6-49.1
		c0.3-0.6,0.6-1,0.9-1.6c1.4,0,2.6,0,3.5,0c8.9,0,20.3-1.3,32.2-3.7s23.1-5.5,31.4-8.9c0.9-0.4,1.8-0.9,3-1.3
		c5.3,4,9.7,8.9,12.9,14.8c7.8-1.8,15.2-5,22-8.9c-2.8,8.9-8.7,16.3-16.3,21.4c-0.1,0.1-0.3,0.1-0.3,0.3s0.1,0.3,0.1,0.4
		c0.1,0,0.3,0,0.4,0c7.5-1,14.8-3.1,21.6-6.1C249.7,2800.4,243.5,2806.9,236.5,2812.3z"/>
	<path fill="#3E5067" d="M236.5,2812.3C236.4,2812.3,236.4,2812.4,236.5,2812.3L236.5,2812.3z"/>
</g>
<g>
	<path fill="#81C8C1" d="M194.9,2810.6c0.7,4.4,3.1,11.8,10.4,13.2c0-1,0-1.8,0-2.7c0-0.9,0-1.6,0-2.3c0-0.7,0-1.4,0-2
		C201.2,2816.1,197.6,2813.8,194.9,2810.6z"/>
	<path fill="#81C8C1" d="M212.5,2816.8c0,1.3,0.1,3,0.1,4.8c0,0.6,0,1.1,0,1.8c7.5-2.3,10.8-9.5,11.9-16.2
		C222.3,2812,217.8,2815.7,212.5,2816.8z"/>
	<path fill="#81C8C1" d="M132.6,2905.4c-2.3,0-4.5,0-7-0.1l1.7,5c1.8,0,3.5,0.1,5.3,0.1c24.3,0,43.4-7,57.2-20.7
		c21.6-21.7,23.1-53.7,22.9-66.2c-0.3,14.6-3.7,42-22.9,61.2C176,2898.5,156.9,2905.4,132.6,2905.4z"/>
	<polygon fill="#81C8C1" points="118.1,2905.1 109.7,2895.6 116.5,2915.3 121.1,2913.8 119.7,2909.7 118.8,2907.4 	"/>
	<path fill="#81C8C1" d="M249.1,2777.1c-6.8,4-14.2,7.1-22,8.9c0,0,3,4.8,5.7,12.4C240.5,2793.5,246.3,2786,249.1,2777.1z"/>
	<path fill="#81C8C1" d="M233,2799.1c1.3,3.8,2.6,8.2,3.4,13.2c7.1-5.4,13.3-11.9,18.2-19.3C247.7,2796,240.5,2798.1,233,2799.1z"/>
	<path fill="#81C8C1" d="M109.5,2940.3c-0.3,0-0.7-0.1-1-0.1c-7.8-1.1-57.8-11.4-59.2-58.8c13.5,4,32.7-0.1,20-18.7
		c9.7,0.7,37.9,1.3,54.1-26.7c-11.2,9.4-38.2,15.2-58.1,15.2c-2.8,0-5.4-0.1-7.8-0.4c-3.4-0.1-6.4-0.7-8.7-1.6
		c2.8,5.4,5.1,10.5,14.9,18.2c-0.1,0-0.3,0-0.4,0c-9.2,0-26.5-8.4-36.1-15.2v1.8c2,5,7.2,11.8,10.4,15.9
		c-11.5-2.4-20.2-6.5-30.5-17.2c2.1,16.5,7.8,31.9,16,45.6c8.1,13.2,18.7,24.7,31.4,33.8c19.2,13.8,42.7,22,68.1,22
		c31.4,0,59.9-12.5,80.9-32.7c1.6-1.4,3-3,4.5-4.5c0.3-0.3,0.4-0.4,0.7-0.7C208.4,2916.3,165,2946.3,109.5,2940.3z"/>
	<path fill="#81C8C1" d="M134.7,2775.9c0.1,0.1,0.1,0.1,0.3,0.3c1.1,0.9,3,1.3,5.3,1.7c2.4,0.3,5.4,0.4,8.7,0.4
		c2.7-0.1,5.5-0.3,8.5-0.6c12.4-1.3,27.1-4.1,37.6-7.1c0.9-0.3,1.8-0.6,2.7-0.9c0.3-0.1,0.6-0.1,0.7-0.3c0.6-0.1,1-0.3,1.6-0.6
		c-11.2,0.6-20.4-1.8-28.1-5.7c-2.8-1.4-5.4-3-7.8-4.8c-16.6-12.1-22.9-30.2-22.9-30.2l6.1,36.6c-2.7,1.1-15.5,6.2-13.6,9.7
		C133.9,2775.1,134.2,2775.5,134.7,2775.9z"/>
</g>
</svg>
