<?xml version="1.0" encoding="utf-8"?>
<!-- Generator: Adobe Illustrator 15.0.2, SVG Export Plug-In . SVG Version: 6.00 Build 0)  -->
<!DOCTYPE svg PUBLIC "-//W3C//DTD SVG 1.1//EN" "http://www.w3.org/Graphics/SVG/1.1/DTD/svg11.dtd">
<svg version="1.1" id="Layer_1" xmlns="http://www.w3.org/2000/svg" xmlns:xlink="http://www.w3.org/1999/xlink" x="0px" y="0px"
	 width="329px" height="340px" viewBox="0 0 329 340" enable-background="new 0 0 329 340" xml:space="preserve">
<path fill="#23AADB" d="M294.98,119.68c-22.17-21.78-52.88-32.67-92.14-32.67c-15.66,0-30.46,2.34-44.39,7
	C100.39,83.37,51.98,48.88,22.26,2c-7.43,9.84-12.43,21.73-14,34.85c-2.97,24.85,7.06,48.29,24.75,63.43
	c-11.7-1.77-22.36-6.32-31.38-12.83c-0.04,0.3-0.08,0.6-0.11,0.9c-4.15,34.71,17.09,66.61,49.07,77.1
	c-6.21,0.92-12.64,1.04-19.17,0.26c-4.61-0.55-9.05-1.54-13.32-2.9c5.36,27.71,26.79,50.44,55.25,56.71
	c0.86,22.52,6.2,42.59,16.05,60.19c10.79,19.29,25.95,34.03,45.48,44.24c19.53,10.2,41.99,15.31,67.38,15.31
	c29.3,0,53.22-2.3,71.78-6.88l-5.71-26.37c-11.23,2.64-22,4.39-32.3,5.27c-10.3,0.88-21.46,1.32-33.47,1.32
	c-20.12,0-37.67-3.98-52.66-11.94c-14.99-7.96-26.61-19.46-34.86-34.5c-8.25-15.04-12.38-32.67-12.38-52.88
	c0-18.65,4.27-35.62,12.82-50.9c8.54-15.28,20.53-27.22,35.96-35.82c15.43-8.59,32.67-12.89,51.71-12.89
	c30.96,0,54.66,8.35,71.12,25.05c16.45,16.7,24.68,41.07,24.68,73.1c0,10.16-1.1,19.24-3.3,27.25c-2.2,8.01-5.35,14.26-9.45,18.75
	c-4.1,4.49-9.28,6.74-15.53,6.74c-2.83,0-5.26-0.73-7.45-2.2s-3.21-5.42-3.21-11.87V149h-32v5.55c-11-6.83-22.64-10.25-33.67-10.25
	c-19.73,0-35.03,6.67-46.06,20c-11.04,13.33-16.51,31.27-16.51,53.83c0,13.87,2.27,26.05,6.76,36.55
	c4.49,10.5,11.04,18.63,19.64,24.39c8.59,5.76,19.1,8.64,31.5,8.64c13.87,0,27.69-4.78,41.46-14.36c2.73,6.94,7.3,11.72,13.7,14.36
	c6.39,2.64,14.43,3.96,24.1,3.96c13.08,0,24.05-3.37,32.89-10.11c8.84-6.74,15.45-16.11,19.85-28.12s6.59-26.27,6.59-42.77
	C328.23,171.78,317.14,141.46,294.98,119.68z M228,244.78c-13,8.99-23.96,13.48-32.65,13.48c-10.06,0-17.77-3.25-23.14-9.74
	c-5.37-6.49-8.05-16.72-8.05-30.69c0-15.82,2.95-27.27,8.86-34.35c5.91-7.08,14.56-10.62,25.99-10.62c8.2,0,17.99,3.37,28.99,10.11
	V244.78z"/>
</svg>
