<?xml version="1.0" encoding="utf-8"?>
<!-- Generator: Adobe Illustrator 17.1.0, SVG Export Plug-In . SVG Version: 6.00 Build 0)  -->
<!DOCTYPE svg PUBLIC "-//W3C//DTD SVG 1.1//EN" "http://www.w3.org/Graphics/SVG/1.1/DTD/svg11.dtd">
<svg version="1.1" id="Layer_1" xmlns="http://www.w3.org/2000/svg" xmlns:xlink="http://www.w3.org/1999/xlink" x="0px" y="0px"
	 viewBox="0 0 1417.3 1582.6" enable-background="new 0 0 1417.3 1582.6" xml:space="preserve">
<g>
	<path fill="#83C9C2" d="M50.1,50.1v274.4h1317.2V50.1H50.1z M1298.1,197.3H119.2v-80.1h1178.9L1298.1,197.3L1298.1,197.3z"/>
	<path fill="#83C9C2" d="M50.1,576.9v955.6h1097.8C539.9,1499.5,68.1,1279.1,50.1,576.9z"/>
	<path fill="#83C9C2" d="M678.1,939.5L903.5,1214c7-7,15-12,24-14L790.3,671.1c-2,5-4,8-5,11c-2,3-5,8-11,15c-6,7-9,11-11,13
		c-9,9-18,18-26,26s-14,15-17,20c-3,5-4,13-4,24v35.1h-52.1v24c3,0,6-1,9-1c14,0,26,5,36.1,15c10,10,15,22,15,36.1
		c0,14-5,26-15,36.1C700.1,933.5,690.1,938.5,678.1,939.5z"/>
</g>
<g>
	<path fill="#3F5067" d="M765.3,549.9c-23-20-52.1-30-88.1-30c-36.1,0-66.1,11-90.1,33.1s-38.1,52.1-42.1,91.1H637
		c2-14,6-26,12-35.1c7-9,15-13,25-13c10,0,18,4,24,11c6,7,9,17,9,28s-3,20-9,27l-39.1,41.1c-13,14-22,24-26,32.1s-6,20-6,36.1v44.1
		h36.1h52.1v-35.1c0-10,1-18,4-24c3-5,8-12,17-20c9-8,17-17,26-26c2-2,6-6,11-13c6-7,9-12,11-15c1-2,3-6,5-11c1-2,2-3,3-5
		c4-8,6-19,6-35.1C799.3,597,787.3,568.9,765.3,549.9z"/>
	<path fill="#3F5067" d="M673.1,837.4c-3,0-6,0-9,1c-11,2-20,6-27,14c-10,10-15,22-15,36.1c0,14,5,26,15,36.1c10,10,22,15,36.1,15
		c2,0,3,0,5,0c12-1,22-6,31.1-14c10-10,15-22,15-36.1s-5-26-15-36.1C699.1,842.4,687.1,837.4,673.1,837.4z"/>
	<path fill="#3F5067" d="M1392.3,0H25C11,0,0,11,0,25v1532.5c0,14,11,25,25,25h1367.2c14,0,25-11,25-25V25
		C1417.3,11,1406.3,0,1392.3,0z M1147.9,1532.5H50.1V576.9V324.5V50.1h1317.2v274.4v1208H1147.9z"/>
	<path fill="#3F5067" d="M945.5,1196c-6,0-12,1-18,3c-9,3-17,8-24,14c-11,11-18,26-18,43.1c0,33.1,27,60.1,60.1,60.1
		s60.1-27,60.1-60.1C1005.6,1223,978.6,1196,945.5,1196z"/>
</g>
</svg>
