<?xml version="1.0" encoding="utf-8"?>
<!-- Generator: Adobe Illustrator 17.1.0, SVG Export Plug-In . SVG Version: 6.00 Build 0)  -->
<!DOCTYPE svg PUBLIC "-//W3C//DTD SVG 1.1//EN" "http://www.w3.org/Graphics/SVG/1.1/DTD/svg11.dtd">
<svg version="1.1" id="Layer_1" xmlns="http://www.w3.org/2000/svg" xmlns:xlink="http://www.w3.org/1999/xlink" x="0px" y="0px"
	 viewBox="0 0 189 131" enable-background="new 0 0 189 131" xml:space="preserve">
<path fill="#81C8C1" d="M124.5,93.3C96.6,90.3,73.1,81.4,59,69.4v23.9H124.5z"/>
<path fill="#81C8C1" d="M5,5v27.5h21.3l6.4-6.9c0.5-0.6,1.3-0.9,2.1-0.8c0.8,0.1,1.5,0.6,1.9,1.3l3.7,6.5H184V5H5z M12.5,19.7v-8
	h164v8H12.5z"/>
<g>
	<path fill="#3E5067" d="M132.5,63.3h-76c-1.4,0-2.5,1.1-2.5,2.5V78c-7.2-3-19.7-12.5-17.8-42.8l2.2,3.8l4.3-2.5l-2.3-4.1L36.7,26
		c-0.4-0.7-1.1-1.2-1.9-1.3c-0.8-0.1-1.6,0.2-2.1,0.8l-6.4,6.9l-1.9,2.1l3.7,3.4l3.1-3.4c-1.1,17.3,2,30.5,9.4,39.5
		c4.6,5.5,9.8,8.1,13.4,9.3v12.5c0,1.4,1.1,2.5,2.5,2.5h76c1.4,0,2.5-1.1,2.5-2.5v-30C135,64.5,133.9,63.3,132.5,63.3z M59,68.3h71
		v25h-5.5H59V69.4V68.3z"/>
	<path fill="#3E5067" d="M186.5,0H2.5C1.1,0,0,1.1,0,2.5v126c0,1.4,1.1,2.5,2.5,2.5h184c1.4,0,2.5-1.1,2.5-2.5V2.5
		C189,1.1,187.9,0,186.5,0z M184,126H5V32.5V5h179v27.5V126z"/>
</g>
</svg>
